<svg xmlns="http://www.w3.org/2000/svg" xmlns:svg="http://www.w3.org/2000/svg" xmlns:xlink="http://www.w3.org/1999/xlink" version="1.0" height="700.0000000000001pt" width="1071.086956521739pt" viewBox="75 -62.99999999999997 1079.086956521739 706.0000000000001" ><defs><style type="text/css">
            @font-face {
                font-family: 'lt_regular';
                src: url('https://app.creately.com/diagram/assets/fonts/lato/lt-regular-webfont.woff2') format('woff2'),
                    url('https://app.creately.com/diagram/assets/fonts/lato/lt-regular-webfont.woff') format('woff');
                font-weight: normal;
                font-style: normal;
            }
            @font-face {
                font-family: 'noto_regular';
                src: url('https://app.creately.com/diagram/assets/fonts/noto/noto-regular.woff') format('woff'),
                     url('https://app.creately.com/diagram/assets/fonts/noto/noto-regular.woff2') format('woff2');
                font-weight: normal;
                font-style: normal;
            }
        p {
            margin: 0;
        }
        </style></defs><defs><style>
            span{ display: inline-block; }
        </style></defs><g id="ZUt12C05vLH"><g transform="translate(219.99999999999994 -49.99999999999997)"><rect x="0" y="0" width="101.08695652173911" height="29" fill="rgb(53,98,96)" stroke="#356260" stroke-width="2" stroke-linecap="round" stroke-linejoin="round" stroke-dasharray="0 0"/><path d="M 50.543478260869556,29 L 50.543478260869556,690.0000000000001" fill="rgb(53,98,96)" stroke="#356260" stroke-width="2" stroke-linecap="round" stroke-linejoin="round" stroke-dasharray="3 3"/><rect x="0" y="0" width="101.08695652173911" height="690.0000000000001" fill="rgba(255,255,255,0.01)" stroke="rgba(255,255,255,0.01)" stroke-width="2" stroke-linecap="round" stroke-linejoin="round" stroke-dasharray="3 3"/></g><g transform="translate(246.5434782608695, -44.99999999999997) rotate(0, 24, 0)" width="48" height="19"><text text-decoration="none" x="0" fill="#fdf6f6" font-size="10pt" font-family="lt_regular"  y="15">Website</text><text text-decoration="none" x="48" fill="#4b4b4b" font-size="10pt" font-family="noto_regular"  y="15"></text></g></g><g id="0v9JJGVtwvT"><g transform="translate(361.5217391304349 -49.99999999999997)"><rect x="0" y="0" width="101.08695652173911" height="29" fill="rgb(53,98,96)" stroke="#356260" stroke-width="2" stroke-linecap="round" stroke-linejoin="round" stroke-dasharray="0 0"/><path d="M 50.543478260869556,29 L 50.543478260869556,690.0000000000001" fill="rgb(53,98,96)" stroke="#356260" stroke-width="2" stroke-linecap="round" stroke-linejoin="round" stroke-dasharray="3 3"/><rect x="0" y="0" width="101.08695652173911" height="690.0000000000001" fill="rgba(255,255,255,0.01)" stroke="rgba(255,255,255,0.01)" stroke-width="2" stroke-linecap="round" stroke-linejoin="round" stroke-dasharray="3 3"/></g><g transform="translate(373.5652173913045, -44.99999999999997) rotate(0, 38.5, 0)" width="77" height="19"><text text-decoration="none" x="0.5" fill="#fdf6f6" font-size="10pt" font-family="lt_regular"  y="15">Product&#160;</text><text text-decoration="none" x="48.5" fill="#fdf6f6" font-size="10pt" font-family="lt_regular"  y="15">Page</text><text text-decoration="none" x="76.5" fill="#4b4b4b" font-size="10pt" font-family="noto_regular"  y="15"></text></g></g><g id="g67tFpd0ScS"><g transform="translate(503.0434782608699 -49.99999999999997)"><rect x="0" y="0" width="101.08695652173911" height="47" fill="rgb(53,98,96)" stroke="#356260" stroke-width="2" stroke-linecap="round" stroke-linejoin="round" stroke-dasharray="0 0"/><path d="M 50.543478260869556,47 L 50.543478260869556,690.0000000000001" fill="rgb(53,98,96)" stroke="#356260" stroke-width="2" stroke-linecap="round" stroke-linejoin="round" stroke-dasharray="3 3"/><rect x="0" y="0" width="101.08695652173911" height="690.0000000000001" fill="rgba(255,255,255,0.01)" stroke="rgba(255,255,255,0.01)" stroke-width="2" stroke-linecap="round" stroke-linejoin="round" stroke-dasharray="3 3"/></g><g transform="translate(525.5869565217395, -44.99999999999997) rotate(0, 28, 0)" width="56" height="37"><text text-decoration="none" x="2" fill="#fdf6f6" font-size="10pt" font-family="lt_regular"  y="14">Shopping&#160;</text><text text-decoration="none" x="0" fill="#fdf6f6" font-size="10pt" font-family="lt_regular"  y="33">Cart&#160;</text><text text-decoration="none" x="28" fill="#fdf6f6" font-size="10pt" font-family="lt_regular"  y="33">Page</text><text text-decoration="none" x="56" fill="#4b4b4b" font-size="10pt" font-family="noto_regular"  y="33"></text></g></g><g id="imz6fPNWzkf"><g transform="translate(634.4565217391303 -49.99999999999997)"><rect x="0" y="0" width="101.08695652173911" height="47" fill="rgb(53,98,96)" stroke="#356260" stroke-width="2" stroke-linecap="round" stroke-linejoin="round" stroke-dasharray="0 0"/><path d="M 50.543478260869556,47 L 50.543478260869556,690.0000000000001" fill="rgb(53,98,96)" stroke="#356260" stroke-width="2" stroke-linecap="round" stroke-linejoin="round" stroke-dasharray="3 3"/><rect x="0" y="0" width="101.08695652173911" height="690.0000000000001" fill="rgba(255,255,255,0.01)" stroke="rgba(255,255,255,0.01)" stroke-width="2" stroke-linecap="round" stroke-linejoin="round" stroke-dasharray="3 3"/></g><g transform="translate(645.4999999999998, -44.99999999999997) rotate(0, 39.5, 0)" width="79" height="37"><text text-decoration="none" x="0.5" fill="#fdf6f6" font-size="10pt" font-family="lt_regular"  y="14">SignUp/Login&#160;</text><text text-decoration="none" x="25.5" fill="#fdf6f6" font-size="10pt" font-family="lt_regular"  y="33">Page</text><text text-decoration="none" x="53.5" fill="#4b4b4b" font-size="10pt" font-family="noto_regular"  y="33"></text></g></g><g id="mSwqyHSjkFM"><g transform="translate(765.8695652173913 -49.99999999999997)"><rect x="0" y="0" width="101.08695652173911" height="47" fill="rgb(53,98,96)" stroke="#356260" stroke-width="2" stroke-linecap="round" stroke-linejoin="round" stroke-dasharray="0 0"/><path d="M 50.543478260869556,47 L 50.543478260869556,690.0000000000001" fill="rgb(53,98,96)" stroke="#356260" stroke-width="2" stroke-linecap="round" stroke-linejoin="round" stroke-dasharray="3 3"/><rect x="0" y="0" width="101.08695652173911" height="690.0000000000001" fill="rgba(255,255,255,0.01)" stroke="rgba(255,255,255,0.01)" stroke-width="2" stroke-linecap="round" stroke-linejoin="round" stroke-dasharray="3 3"/></g><g transform="translate(790.9130434782608, -44.99999999999997) rotate(0, 25.5, 0)" width="51" height="37"><text text-decoration="none" x="0" fill="#fdf6f6" font-size="10pt" font-family="lt_regular"  y="14">Payment&#160;</text><text text-decoration="none" x="11.5" fill="#fdf6f6" font-size="10pt" font-family="lt_regular"  y="33">Page</text><text text-decoration="none" x="39.5" fill="#4b4b4b" font-size="10pt" font-family="noto_regular"  y="33"></text></g></g><g id="XnJcM7GS8lR"><g transform="translate(907.3913043478258 -49.99999999999997)"><rect x="0" y="0" width="101.08695652173911" height="29" fill="rgb(53,98,96)" stroke="#356260" stroke-width="2" stroke-linecap="round" stroke-linejoin="round" stroke-dasharray="0 0"/><path d="M 50.543478260869556,29 L 50.543478260869556,690.0000000000001" fill="rgb(53,98,96)" stroke="#356260" stroke-width="2" stroke-linecap="round" stroke-linejoin="round" stroke-dasharray="3 3"/><rect x="0" y="0" width="101.08695652173911" height="690.0000000000001" fill="rgba(255,255,255,0.01)" stroke="rgba(255,255,255,0.01)" stroke-width="2" stroke-linecap="round" stroke-linejoin="round" stroke-dasharray="3 3"/></g><g transform="translate(918.4347826086953, -44.99999999999997) rotate(0, 39.5, 0)" width="79" height="19"><text text-decoration="none" x="0" fill="#fdf6f6" font-size="10pt" font-family="lt_regular"  y="15">Order&#160;</text><text text-decoration="none" x="37" fill="#fdf6f6" font-size="10pt" font-family="lt_regular"  y="15">Review</text><text text-decoration="none" x="79" fill="#4b4b4b" font-size="10pt" font-family="noto_regular"  y="15"></text></g></g><g id="H6UeBkxfBgD"><g transform="translate(1050 -49.99999999999997)"><rect x="0" y="0" width="101.08695652173911" height="47" fill="rgb(53,98,96)" stroke="#356260" stroke-width="2" stroke-linecap="round" stroke-linejoin="round" stroke-dasharray="0 0"/><path d="M 50.543478260869556,47 L 50.543478260869556,690.0000000000001" fill="rgb(53,98,96)" stroke="#356260" stroke-width="2" stroke-linecap="round" stroke-linejoin="round" stroke-dasharray="3 3"/><rect x="0" y="0" width="101.08695652173911" height="690.0000000000001" fill="rgba(255,255,255,0.01)" stroke="rgba(255,255,255,0.01)" stroke-width="2" stroke-linecap="round" stroke-linejoin="round" stroke-dasharray="3 3"/></g><g transform="translate(1062.0434782608695, -44.99999999999997) rotate(0, 38.5, 0)" width="77" height="37"><text text-decoration="none" x="21.5" fill="#fdf6f6" font-size="10pt" font-family="lt_regular"  y="14">Order&#160;</text><text text-decoration="none" x="1.5" fill="#fdf6f6" font-size="10pt" font-family="lt_regular"  y="33">Confirmation</text><text text-decoration="none" x="75.5" fill="#4b4b4b" font-size="10pt" font-family="noto_regular"  y="33"></text></g></g><g id="nn6LgyZHnMY"><g transform="translate(150.00000000000006 -59.99999999999997)"><ellipse cx="20" cy="7.499999999999996" rx="10" ry="7.499999999999996" fill="rgb(132,175,181)" stroke="#84afb5" stroke-width="2" stroke-linecap="round" stroke-linejoin="round" stroke-dasharray="0 0"/><path d="M 20,14.999999999999991 L 20,35.99999999999998 L 40,59.999999999999964 M 20,35.99999999999998 L 0,59.999999999999964 M 2,22.499999999999986 L 38,22.499999999999986" fill="none" stroke="#84afb5" stroke-width="2" stroke-linecap="round" stroke-linejoin="round" stroke-dasharray="0 0"/><rect x="0" y="0" width="40" height="59.999999999999964" fill="rgba(255,255,255,0.01)" stroke="rgba(255,255,255,0.01)" stroke-width="2" stroke-linecap="round" stroke-linejoin="round" stroke-dasharray="0 0"/></g><g transform="translate(141.50000000000006, 10) rotate(0, 28.5, 0)" width="57" height="19"><text text-decoration="none" x="0" fill="rgb(0, 0, 0)" font-size="10pt" font-family="lt_regular"  y="15">Custome</text><text text-decoration="none" x="52" fill="rgb(253, 246, 246)" font-size="10pt" font-family="lt_regular"  y="15">r</text><text text-decoration="none" x="57" fill="#4b4b4b" font-size="10pt" font-family="noto_regular"  y="15"></text></g></g><g id="8axeSy1t517"><g transform="translate(80 -49.99999999999997)"><rect x="0" y="0" width="20" height="670" fill="rgb(230,176,43)" stroke="#cb892a" stroke-width="2" stroke-linecap="round" stroke-linejoin="round" stroke-dasharray="0 0"/></g></g><g id="0WbbTbxN5Wg"><g transform="translate(260.00000000000006 10.000000000000028)"><rect x="0" y="0" width="20" height="60.00000000000001" fill="rgb(230,176,43)" stroke="#cb892a" stroke-width="2" stroke-linecap="round" stroke-linejoin="round" stroke-dasharray="0 0"/></g></g><g id="ppMssqCdw1J"><g transform="translate(400.00000000000006 49.99999999999994)"><rect x="0" y="0" width="20" height="70.00000000000006" fill="rgb(230,176,43)" stroke="#cb892a" stroke-width="2" stroke-linecap="round" stroke-linejoin="round" stroke-dasharray="0 0"/></g></g><g id="BpfBMbGXTI3"><g transform="translate(540 89.99999999999997)"><rect x="0" y="0" width="20" height="139.99999999999997" fill="rgb(230,176,43)" stroke="#cb892a" stroke-width="2" stroke-linecap="round" stroke-linejoin="round" stroke-dasharray="0 0"/></g></g><g id="ZlQnv8TDKBe"><g transform="translate(680 210)"><rect x="0" y="0" width="20" height="160.0000000000001" fill="rgb(230,176,43)" stroke="#cb892a" stroke-width="2" stroke-linecap="round" stroke-linejoin="round" stroke-dasharray="0 0"/></g></g><g id="DRsO4eOY9S7"><g transform="translate(799.9999999999998 349.99999999999994)"><rect x="0" y="0" width="20" height="120.00000000000003" fill="rgb(230,176,43)" stroke="#cb892a" stroke-width="2" stroke-linecap="round" stroke-linejoin="round" stroke-dasharray="0 0"/></g></g><g id="sxoxR65qPDg"><g transform="translate(949.9999999999998 470.00000000000006)"><rect x="0" y="0" width="20" height="90.00000000000013" fill="rgb(230,176,43)" stroke="#cb892a" stroke-width="2" stroke-linecap="round" stroke-linejoin="round" stroke-dasharray="0 0"/></g></g><g id="PUiXMtzbUiX"><g transform="translate(1090 569.9999999999999)"><rect x="0" y="0" width="20" height="49.999999999999986" fill="rgb(230,176,43)" stroke="#cb892a" stroke-width="2" stroke-linecap="round" stroke-linejoin="round" stroke-dasharray="0 0"/></g></g><g id="jq4lIHhyzXw"><mask id="5af4d" x="86" y="46" width="188" height="28" maskUnits="userSpaceOnUse"><rect x="86" y="46" width="188" height="28" fill="white" /><rect x="124" y="30" width="112" height="60" fill="black" /></mask><g mask="url(#5af4d)"><path d="M 100,60 L 260,60" fill="none" stroke="#9A9A9A" stroke-width="2" stroke-linecap="round" stroke-linejoin="round"/><path d="M 260,60 L 251.30434782608697,54.25 L 251.30434782608697,65.75 Z" fill="rgb(154,154,154)" stroke="#9A9A9A" stroke-width="2" stroke-linecap="round" stroke-linejoin="round"/></g><g transform="translate(127, 33)" width="106" height="54"><text text-decoration="none" x="2" fill="rgb(84, 84, 84)" font-size="10pt" font-family="lt_regular"  y="14">Browse&#160;</text><text text-decoration="none" x="48" fill="rgb(84, 84, 84)" font-size="10pt" font-family="lt_regular"  y="14">website&#160;</text><text text-decoration="none" x="96" fill="rgb(84, 84, 84)" font-size="10pt" font-family="lt_regular"  y="14">-&#160;</text><text text-decoration="none" x="104" fill="rgb(84, 84, 84)" font-size="10pt" font-family="lt_regular"  y="14"></text><text text-decoration="none" x="12.5" fill="rgb(84, 84, 84)" font-size="10pt" font-family="lt_regular"  y="32">select&#160;</text><text text-decoration="none" x="49.5" fill="rgb(84, 84, 84)" font-size="10pt" font-family="lt_regular"  y="32">product</text><text text-decoration="none" x="93.5" fill="rgb(84, 84, 84)" font-size="10pt" font-family="lt_regular"  y="32"></text><text text-decoration="none" x="53" fill="#4b4b4b" font-size="10pt" font-family="noto_regular"  y="51"></text></g></g><g id="gceTpMQvqBn"><mask id="fb8d7" x="266" y="46" width="148" height="28" maskUnits="userSpaceOnUse"><rect x="266" y="46" width="148" height="28" fill="white" /><rect x="301.50000000000006" y="38.50000000000002" width="77" height="43" fill="black" /></mask><g mask="url(#fb8d7)"><path d="M 280,60 L 330.00000000000006,60.00000000000002 Q 330.0000000000001,60.00000000000002 340,60 Q 350,59.99999999999995 350.00000000000006,59.99999999999995 L 400,60" fill="none" stroke="#9A9A9A" stroke-width="2" stroke-linecap="round" stroke-linejoin="round"/><path d="M 400,60 L 391.30434782608694,54.25 L 391.30434782608694,65.75 Z" fill="rgb(154,154,154)" stroke="#9A9A9A" stroke-width="2" stroke-linecap="round" stroke-linejoin="round"/></g><g transform="translate(304.50000000000006, 41.50000000000002)" width="71" height="37"><text text-decoration="none" x="1" fill="rgb(84, 84, 84)" font-size="10pt" font-family="lt_regular"  y="14">Get&#160;</text><text text-decoration="none" x="26" fill="rgb(84, 84, 84)" font-size="10pt" font-family="lt_regular"  y="14">product</text><text text-decoration="none" x="70" fill="rgb(84, 84, 84)" font-size="10pt" font-family="lt_regular"  y="14"></text><text text-decoration="none" x="1" fill="rgb(84, 84, 84)" font-size="10pt" font-family="lt_regular"  y="33">information</text><text text-decoration="none" x="70" fill="#4b4b4b" font-size="10pt" font-family="noto_regular"  y="33"></text></g></g><g id="t8dh0Yq8efc"><mask id="e525c" x="86" y="246" width="608" height="28" maskUnits="userSpaceOnUse"><rect x="86" y="246" width="608" height="28" fill="white" /><rect x="293.5" y="247.5" width="193" height="25" fill="black" /></mask><g mask="url(#e525c)"><path d="M 100,260 L 680,260" fill="none" stroke="#9A9A9A" stroke-width="2" stroke-linecap="round" stroke-linejoin="round"/><path d="M 680,260 L 671.304347826087,254.25 L 671.304347826087,265.75 Z" fill="rgb(154,154,154)" stroke="#9A9A9A" stroke-width="2" stroke-linecap="round" stroke-linejoin="round"/></g><g transform="translate(296.5, 250.5)" width="187" height="19"><text text-decoration="none" x="0.5" fill="rgb(84, 84, 84)" font-size="10pt" font-family="lt_regular"  y="15">Click&#160;</text><text text-decoration="none" x="31.5" fill="rgb(84, 84, 84)" font-size="10pt" font-family="lt_regular"  y="15">Continue&#160;</text><text text-decoration="none" x="86.5" fill="rgb(84, 84, 84)" font-size="10pt" font-family="lt_regular"  y="15">to&#160;</text><text text-decoration="none" x="101.5" fill="rgb(84, 84, 84)" font-size="10pt" font-family="lt_regular"  y="15">Register/Login</text><text text-decoration="none" x="186.5" fill="#4b4b4b" font-size="10pt" font-family="noto_regular"  y="15"></text></g></g><g id="BwrB6GraSRB"><mask id="03043" x="86" y="86" width="328" height="28" maskUnits="userSpaceOnUse"><rect x="86" y="86" width="328" height="28" fill="white" /><rect x="179.5" y="87.50000000000001" width="141" height="25" fill="black" /></mask><g mask="url(#03043)"><path d="M 100,100 L 240.00000000000003,100.00000000000003 Q 240.00000000000006,100.00000000000003 250,100 Q 259.99999999999994,99.99999999999994 260,99.99999999999994 L 400,100" fill="none" stroke="#9A9A9A" stroke-width="2" stroke-linecap="round" stroke-linejoin="round"/><path d="M 100,100 L 108.69565217391305,105.75 L 108.69565217391305,94.25 Z" fill="rgb(154,154,154)" stroke="#9A9A9A" stroke-width="2" stroke-linecap="round" stroke-linejoin="round"/><path d="M 400,100 L 391.30434782608694,94.25 L 391.30434782608694,105.75 Z" fill="rgb(154,154,154)" stroke="#9A9A9A" stroke-width="2" stroke-linecap="round" stroke-linejoin="round"/></g><g transform="translate(182.5, 90.50000000000001)" width="135" height="19"><text text-decoration="none" x="2.5" fill="rgb(84, 84, 84)" font-size="10pt" font-family="lt_regular"  y="15">Display&#160;</text><text text-decoration="none" x="47.5" fill="rgb(84, 84, 84)" font-size="10pt" font-family="lt_regular"  y="15">Product&#160;</text><text text-decoration="none" x="95.5" fill="rgb(84, 84, 84)" font-size="10pt" font-family="lt_regular"  y="15">details</text><text text-decoration="none" x="132.5" fill="#4b4b4b" font-size="10pt" font-family="noto_regular"  y="15"></text></g></g><g id="JmPChLxUzx6"><mask id="18397" x="86" y="126" width="468" height="28" maskUnits="userSpaceOnUse"><rect x="86" y="126" width="468" height="28" fill="white" /><rect x="269" y="127.5" width="102" height="25" fill="black" /><rect x="440.33401277484415" y="118.5" width="78" height="43" fill="black" /></mask><g mask="url(#18397)"><path d="M 100,140 L 310,140.00000000000003 Q 310,140.00000000000003 320,140 Q 330,139.99999999999997 330,139.99999999999997 L 540,140" fill="none" stroke="#9A9A9A" stroke-width="2" stroke-linecap="round" stroke-linejoin="round"/><path d="M 540,140 L 531.304347826087,134.25 L 531.304347826087,145.75 Z" fill="rgb(154,154,154)" stroke="#9A9A9A" stroke-width="2" stroke-linecap="round" stroke-linejoin="round"/></g><g transform="translate(272, 130.5)" width="96" height="19"><text text-decoration="none" x="1.5" fill="rgb(84, 84, 84)" font-size="10pt" font-family="lt_regular"  y="15">Click&#160;</text><text text-decoration="none" x="32.5" fill="rgb(84, 84, 84)" font-size="10pt" font-family="lt_regular"  y="15">&#x22;Buy&#160;</text><text text-decoration="none" x="62.5" fill="rgb(84, 84, 84)" font-size="10pt" font-family="lt_regular"  y="15">Now&#x22;</text><text text-decoration="none" x="94.5" fill="#4b4b4b" font-size="10pt" font-family="noto_regular"  y="15"></text></g><g transform="translate(443.33401277484415, 121.5)" width="72" height="37"><text text-decoration="none" x="8.5" fill="rgb(75, 75, 75)" font-size="10pt" font-family="lt_regular"  y="14">Shopping&#160;</text><text text-decoration="none" x="63.5" fill="rgb(75, 75, 75)" font-size="10pt" font-family="lt_regular"  y="14"></text><text text-decoration="none" x="1" fill="rgb(75, 75, 75)" font-size="10pt" font-family="lt_regular"  y="33">cart&#160;</text><text text-decoration="none" x="26" fill="rgb(75, 75, 75)" font-size="10pt" font-family="lt_regular"  y="33">redirect</text><text text-decoration="none" x="71" fill="#4b4b4b" font-size="10pt" font-family="noto_regular"  y="33"></text></g></g><g id="GnfpVHbQoIz"><mask id="08ea6" x="483" y="166" width="71" height="68" maskUnits="userSpaceOnUse"><rect x="483" y="166" width="71" height="68" fill="white" /><rect x="430.99999620965866" y="187.50015050886222" width="132" height="25" fill="black" /></mask><g mask="url(#08ea6)"><path d="M 540,180 L 496.52151332387456,180 L 497,200 L 496.52151332387456,219 L 518,219 L 540,219 L 540,220" fill="none" stroke="#7E7E7E" stroke-width="2" stroke-linecap="round" stroke-linejoin="round"/></g><g transform="translate(433.99999620965866, 190.50015050886222)" width="126" height="19"><text text-decoration="none" x="3" fill="#4b4b4b" font-size="10pt" font-family="lt_regular"  y="15">Get&#160;</text><text text-decoration="none" x="28" fill="#4b4b4b" font-size="10pt" font-family="lt_regular"  y="15">Product&#160;</text><text text-decoration="none" x="76" fill="#4b4b4b" font-size="10pt" font-family="lt_regular"  y="15">Info&#160;&#160;&#160;&#160;&#160;&#160;&#160;&#160;</text><text text-decoration="none" x="123" fill="#4b4b4b" font-size="10pt" font-family="noto_regular"  y="15"></text></g></g><g id="mJgDeEAggBt"><mask id="d90e8" x="86" y="206" width="468" height="28" maskUnits="userSpaceOnUse"><rect x="86" y="206" width="468" height="28" fill="white" /><rect x="237" y="207.5" width="166" height="25" fill="black" /></mask><g mask="url(#d90e8)"><path d="M 540,220 L 330,219.99999999999994 Q 329.99999999999994,219.99999999999994 320,220 Q 310,220.00000000000003 310,220.00000000000003 L 100,220" fill="none" stroke="#9A9A9A" stroke-width="2" stroke-linecap="round" stroke-linejoin="round"/><path d="M 100,220 L 108.69565217391305,225.75 L 108.69565217391305,214.25 Z" fill="rgb(154,154,154)" stroke="#9A9A9A" stroke-width="2" stroke-linecap="round" stroke-linejoin="round"/></g><g transform="translate(240, 210.5)" width="160" height="19"><text text-decoration="none" x="4.5" fill="rgb(84, 84, 84)" font-size="10pt" font-family="lt_regular"  y="15">Display&#160;</text><text text-decoration="none" x="49.5" fill="rgb(84, 84, 84)" font-size="10pt" font-family="lt_regular"  y="15">shopping&#160;</text><text text-decoration="none" x="103.5" fill="rgb(84, 84, 84)" font-size="10pt" font-family="lt_regular"  y="15">cart&#160;</text><text text-decoration="none" x="128.5" fill="rgb(84, 84, 84)" font-size="10pt" font-family="lt_regular"  y="15">page</text><text text-decoration="none" x="155.5" fill="#4b4b4b" font-size="10pt" font-family="noto_regular"  y="15"></text></g></g><g id="X1k8IaJ6GRf"><mask id="de04b" x="86" y="286" width="608" height="28" maskUnits="userSpaceOnUse"><rect x="86" y="286" width="608" height="28" fill="white" /><rect x="268" y="287.5" width="244" height="25" fill="black" /></mask><g mask="url(#de04b)"><path d="M 100,300 L 680,300" fill="none" stroke="#9A9A9A" stroke-width="2" stroke-linecap="round" stroke-linejoin="round"/><path d="M 680,300 L 671.304347826087,294.25 L 671.304347826087,305.75 Z" fill="rgb(154,154,154)" stroke="#9A9A9A" stroke-width="2" stroke-linecap="round" stroke-linejoin="round"/></g><g transform="translate(271, 290.5)" width="238" height="19"><text text-decoration="none" x="2.5" fill="rgb(84, 84, 84)" font-size="10pt" font-family="lt_regular"  y="15">Display&#160;</text><text text-decoration="none" x="47.5" fill="rgb(84, 84, 84)" font-size="10pt" font-family="lt_regular"  y="15">the&#160;</text><text text-decoration="none" x="69.5" fill="rgb(84, 84, 84)" font-size="10pt" font-family="lt_regular"  y="15">Login&#160;</text><text text-decoration="none" x="103.5" fill="rgb(84, 84, 84)" font-size="10pt" font-family="lt_regular"  y="15">and&#160;</text><text text-decoration="none" x="126.5" fill="rgb(84, 84, 84)" font-size="10pt" font-family="lt_regular"  y="15">Create&#160;</text><text text-decoration="none" x="168.5" fill="rgb(84, 84, 84)" font-size="10pt" font-family="lt_regular"  y="15">Profile&#160;</text><text text-decoration="none" x="208.5" fill="rgb(84, 84, 84)" font-size="10pt" font-family="lt_regular"  y="15">page</text><text text-decoration="none" x="235.5" fill="#4b4b4b" font-size="10pt" font-family="noto_regular"  y="15"></text></g></g><g id="ESLA4usoeD0"><mask id="89d14" x="86" y="346" width="608" height="28" maskUnits="userSpaceOnUse"><rect x="86" y="346" width="608" height="28" fill="white" /><rect x="320" y="347.5" width="140" height="25" fill="black" /></mask><g mask="url(#89d14)"><path d="M 100,360 L 680,360" fill="none" stroke="#9A9A9A" stroke-width="2" stroke-linecap="round" stroke-linejoin="round"/><path d="M 680,360 L 671.304347826087,354.25 L 671.304347826087,365.75 Z" fill="rgb(154,154,154)" stroke="#9A9A9A" stroke-width="2" stroke-linecap="round" stroke-linejoin="round"/></g><g transform="translate(323, 350.5)" width="134" height="19"><text text-decoration="none" x="0" fill="rgb(84, 84, 84)" font-size="10pt" font-family="lt_regular"  y="15">Enter&#160;</text><text text-decoration="none" x="35" fill="rgb(84, 84, 84)" font-size="10pt" font-family="lt_regular"  y="15">Login&#160;</text><text text-decoration="none" x="69" fill="rgb(84, 84, 84)" font-size="10pt" font-family="lt_regular"  y="15">Credentials</text><text text-decoration="none" x="134" fill="#4b4b4b" font-size="10pt" font-family="noto_regular"  y="15"></text></g></g><g id="2IsI8slkKDG"><g transform="translate(419.99999999999983 300)"><rect x="0" y="0" width="249.99999999999991" height="85" fill="rgba(255,255,255,0.01)" stroke="rgba(255,255,255,0.01)"/></g><g transform="translate(429.99999999999983, 310) rotate(0, 0, 0)" width="220" height="37"><text text-decoration="none" x="0" fill="#4b4b4b" font-size="10pt" font-family="lt_regular"  y="14">Login&#160;</text><text text-decoration="none" x="34" fill="#4b4b4b" font-size="10pt" font-family="lt_regular"  y="14">as&#160;</text><text text-decoration="none" x="49" fill="#4b4b4b" font-size="10pt" font-family="lt_regular"  y="14">Existing&#160;</text><text text-decoration="none" x="97" fill="#4b4b4b" font-size="10pt" font-family="lt_regular"  y="14">Customer&#160;</text><text text-decoration="none" x="157" fill="#4b4b4b" font-size="10pt" font-family="lt_regular"  y="14">or&#160;</text><text text-decoration="none" x="172" fill="#4b4b4b" font-size="10pt" font-family="lt_regular"  y="14">Register</text><text text-decoration="none" x="220" fill="#4b4b4b" font-size="10pt" font-family="lt_regular"  y="14"></text><text text-decoration="none" x="0" fill="#4b4b4b" font-size="10pt" font-family="lt_regular"  y="33">as&#160;</text><text text-decoration="none" x="15" fill="#4b4b4b" font-size="10pt" font-family="lt_regular"  y="33">New&#160;</text><text text-decoration="none" x="45" fill="#4b4b4b" font-size="10pt" font-family="lt_regular"  y="33">Customer</text><text text-decoration="none" x="102" fill="#4b4b4b" font-size="10pt" font-family="noto_regular"  y="33"></text></g></g><g id="HI63dctY24d"><mask id="50404" x="686" y="346" width="128" height="28" maskUnits="userSpaceOnUse"><rect x="686" y="346" width="128" height="28" fill="white" /><rect x="684.4999999999999" y="338.49999999999994" width="131" height="43" fill="black" /></mask><g mask="url(#50404)"><path d="M 700,360 L 739.9999999999999,360.0000000000001 Q 740,360.0000000000001 750,360 Q 759.9999999999998,359.99999999999994 759.9999999999999,359.99999999999994 L 800,360" fill="none" stroke="#9A9A9A" stroke-width="2" stroke-linecap="round" stroke-linejoin="round"/><path d="M 800,360 L 791.304347826087,354.25 L 791.304347826087,365.75 Z" fill="rgb(154,154,154)" stroke="#9A9A9A" stroke-width="2" stroke-linecap="round" stroke-linejoin="round"/></g><g transform="translate(687.4999999999999, 341.49999999999994)" width="125" height="37"><text text-decoration="none" x="4" fill="rgb(84, 84, 84)" font-size="10pt" font-family="lt_regular"  y="14">Customer&#160;&#160;&#160;&#160;&#160;&#160;&#160;&#160;&#160;&#160;&#160;&#160;&#160;&#160;&#160;&#160;&#160;&#160;&#160;&#160;</text><text text-decoration="none" x="121" fill="rgb(84, 84, 84)" font-size="10pt" font-family="lt_regular"  y="14"></text><text text-decoration="none" x="20.5" fill="rgb(84, 84, 84)" font-size="10pt" font-family="lt_regular"  y="33">Authentication</text><text text-decoration="none" x="104.5" fill="#4b4b4b" font-size="10pt" font-family="noto_regular"  y="33"></text></g></g><g id="bqvmjXxXzSB"><mask id="543e6" x="86" y="446" width="728" height="28" maskUnits="userSpaceOnUse"><rect x="86" y="446" width="728" height="28" fill="white" /><rect x="383" y="447.5" width="134" height="25" fill="black" /></mask><g mask="url(#543e6)"><path d="M 100,460 L 800,460" fill="none" stroke="#9A9A9A" stroke-width="2" stroke-linecap="round" stroke-linejoin="round"/><path d="M 800,460 L 791.304347826087,454.25 L 791.304347826087,465.75 Z" fill="rgb(154,154,154)" stroke="#9A9A9A" stroke-width="2" stroke-linecap="round" stroke-linejoin="round"/></g><g transform="translate(386, 450.5)" width="128" height="19"><text text-decoration="none" x="0.5" fill="rgb(84, 84, 84)" font-size="10pt" font-family="lt_regular"  y="15">Display&#160;</text><text text-decoration="none" x="45.5" fill="rgb(84, 84, 84)" font-size="10pt" font-family="lt_regular"  y="15">Payment&#160;</text><text text-decoration="none" x="99.5" fill="rgb(84, 84, 84)" font-size="10pt" font-family="lt_regular"  y="15">Page</text><text text-decoration="none" x="127.5" fill="#4b4b4b" font-size="10pt" font-family="noto_regular"  y="15"></text></g></g><g id="qzHdpYAU7Va"><g transform="translate(689.9999999999998 390.00000000000006)"><rect x="0" y="0" width="140" height="56.99999999999999" fill="rgba(255,255,255,0.01)" stroke="rgba(255,255,255,0.01)" stroke-width="2" stroke-linecap="round" stroke-linejoin="round" stroke-dasharray="0 0"/></g><g transform="translate(699.9999999999998, 400.00000000000006) rotate(0, 0, 0)" width="75" height="37"><text text-decoration="none" x="0" fill="rgb(0, 0, 0)" font-size="10pt" font-family="lt_regular"  y="14">Get&#160;</text><text text-decoration="none" x="0" fill="rgb(0, 0, 0)" font-size="10pt" font-family="lt_regular"  y="32">Payment&#160;</text><text text-decoration="none" x="0" fill="rgb(0, 0, 0)" font-size="10pt" font-family="lt_regular"  y="51">Profiles</text><text text-decoration="none" x="43" fill="#4b4b4b" font-size="10pt" font-family="noto_regular"  y="51"></text></g></g><g id="GSe0V5cy6Vk"><mask id="fe358" x="86" y="486" width="878" height="28" maskUnits="userSpaceOnUse"><rect x="86" y="486" width="878" height="28" fill="white" /><rect x="412" y="487.5" width="226" height="25" fill="black" /></mask><g mask="url(#fe358)"><path d="M 100,500 L 950,500" fill="none" stroke="#9A9A9A" stroke-width="2" stroke-linecap="round" stroke-linejoin="round"/><path d="M 950,500 L 941.304347826087,494.25 L 941.304347826087,505.75 Z" fill="rgb(154,154,154)" stroke="#9A9A9A" stroke-width="2" stroke-linecap="round" stroke-linejoin="round"/></g><g transform="translate(415, 490.5)" width="220" height="19"><text text-decoration="none" x="3.5" fill="rgb(84, 84, 84)" font-size="10pt" font-family="lt_regular"  y="15">Select&#160;</text><text text-decoration="none" x="41.5" fill="rgb(84, 84, 84)" font-size="10pt" font-family="lt_regular"  y="15">payment&#160;</text><text text-decoration="none" x="94.5" fill="rgb(84, 84, 84)" font-size="10pt" font-family="lt_regular"  y="15">method&#160;</text><text text-decoration="none" x="141.5" fill="rgb(84, 84, 84)" font-size="10pt" font-family="lt_regular"  y="15">and&#160;</text><text text-decoration="none" x="164.5" fill="rgb(84, 84, 84)" font-size="10pt" font-family="lt_regular"  y="15">Continue</text><text text-decoration="none" x="216.5" fill="#4b4b4b" font-size="10pt" font-family="noto_regular"  y="15"></text></g></g><g id="yiyoA09cT98"><mask id="326e7" x="86" y="526" width="878" height="28" maskUnits="userSpaceOnUse"><rect x="86" y="526" width="878" height="28" fill="white" /><rect x="433" y="527.5" width="184" height="25" fill="black" /></mask><g mask="url(#326e7)"><path d="M 100,540 L 950,540" fill="none" stroke="#9A9A9A" stroke-width="2" stroke-linecap="round" stroke-linejoin="round"/><path d="M 950,540 L 941.304347826087,534.25 L 941.304347826087,545.75 Z" fill="rgb(154,154,154)" stroke="#9A9A9A" stroke-width="2" stroke-linecap="round" stroke-linejoin="round"/></g><g transform="translate(436, 530.5)" width="178" height="19"><text text-decoration="none" x="0.5" fill="rgb(84, 84, 84)" font-size="10pt" font-family="lt_regular"  y="15">Display&#160;</text><text text-decoration="none" x="45.5" fill="rgb(84, 84, 84)" font-size="10pt" font-family="lt_regular"  y="15">the&#160;</text><text text-decoration="none" x="67.5" fill="rgb(84, 84, 84)" font-size="10pt" font-family="lt_regular"  y="15">Order&#160;</text><text text-decoration="none" x="104.5" fill="rgb(84, 84, 84)" font-size="10pt" font-family="lt_regular"  y="15">Review&#160;</text><text text-decoration="none" x="149.5" fill="rgb(84, 84, 84)" font-size="10pt" font-family="lt_regular"  y="15">Page</text><text text-decoration="none" x="177.5" fill="#4b4b4b" font-size="10pt" font-family="noto_regular"  y="15"></text></g></g><g id="jqHWgHafc6T"><g transform="translate(830 450)"><rect x="0" y="0" width="140" height="56.99999999999999" fill="rgba(255,255,255,0.01)" stroke="rgba(255,255,255,0.01)" stroke-width="2" stroke-linecap="round" stroke-linejoin="round" stroke-dasharray="0 0"/></g><g transform="translate(840, 460) rotate(0, 0, 0)" width="97" height="37"><text text-decoration="none" x="0" fill="rgb(0, 0, 0)" font-size="10pt" font-family="lt_regular"  y="14">Add/Update&#160;</text><text text-decoration="none" x="0" fill="rgb(0, 0, 0)" font-size="10pt" font-family="lt_regular"  y="33">Payment&#160;</text><text text-decoration="none" x="54" fill="rgb(0, 0, 0)" font-size="10pt" font-family="lt_regular"  y="33">Profiles</text><text text-decoration="none" x="97" fill="#4b4b4b" font-size="10pt" font-family="noto_regular"  y="33"></text></g></g><g id="CRQMEXbDZKq"><mask id="641c4" x="86" y="566" width="1018" height="28" maskUnits="userSpaceOnUse"><rect x="86" y="566" width="1018" height="28" fill="white" /><rect x="466.5" y="567.5" width="257" height="25" fill="black" /></mask><g mask="url(#641c4)"><path d="M 1090,580 L 605,579.9999999999999 Q 604.9999999999999,579.9999999999999 595,580 Q 585,580 585,580 L 100,580" fill="none" stroke="#9A9A9A" stroke-width="2" stroke-linecap="round" stroke-linejoin="round"/><path d="M 1090,580 L 1081.304347826087,574.25 L 1081.304347826087,585.75 Z" fill="rgb(154,154,154)" stroke="#9A9A9A" stroke-width="2" stroke-linecap="round" stroke-linejoin="round"/></g><g transform="translate(469.5, 570.5)" width="251" height="19"><text text-decoration="none" x="2.5" fill="rgb(84, 84, 84)" font-size="10pt" font-family="lt_regular"  y="15">Review&#160;</text><text text-decoration="none" x="47.5" fill="rgb(84, 84, 84)" font-size="10pt" font-family="lt_regular"  y="15">the&#160;</text><text text-decoration="none" x="69.5" fill="rgb(84, 84, 84)" font-size="10pt" font-family="lt_regular"  y="15">Order&#160;</text><text text-decoration="none" x="106.5" fill="rgb(84, 84, 84)" font-size="10pt" font-family="lt_regular"  y="15">and&#160;</text><text text-decoration="none" x="129.5" fill="rgb(84, 84, 84)" font-size="10pt" font-family="lt_regular"  y="15">continue&#160;</text><text text-decoration="none" x="181.5" fill="rgb(84, 84, 84)" font-size="10pt" font-family="lt_regular"  y="15">to&#160;</text><text text-decoration="none" x="196.5" fill="rgb(84, 84, 84)" font-size="10pt" font-family="lt_regular"  y="15">Purchase</text><text text-decoration="none" x="248.5" fill="#4b4b4b" font-size="10pt" font-family="noto_regular"  y="15"></text></g></g><g id="poLCPrnTcS1"><mask id="3202b" x="86" y="586" width="1018" height="28" maskUnits="userSpaceOnUse"><rect x="86" y="586" width="1018" height="28" fill="white" /><rect x="368.5" y="587.5" width="453" height="25" fill="black" /></mask><g mask="url(#3202b)"><path d="M 1090,600 L 605,599.9999999999999 Q 604.9999999999999,599.9999999999999 595,600 Q 585,600 585,600 L 100,600" fill="none" stroke="#9A9A9A" stroke-width="2" stroke-linecap="round" stroke-linejoin="round"/><path d="M 100,600 L 108.69565217391305,605.75 L 108.69565217391305,594.25 Z" fill="rgb(154,154,154)" stroke="#9A9A9A" stroke-width="2" stroke-linecap="round" stroke-linejoin="round"/></g><g transform="translate(371.5, 590.5)" width="447" height="19"><text text-decoration="none" x="4" fill="rgb(84, 84, 84)" font-size="10pt" font-family="lt_regular"  y="15">Display&#160;</text><text text-decoration="none" x="49" fill="rgb(84, 84, 84)" font-size="10pt" font-family="lt_regular"  y="15">the&#160;</text><text text-decoration="none" x="71" fill="rgb(84, 84, 84)" font-size="10pt" font-family="lt_regular"  y="15">Order&#160;</text><text text-decoration="none" x="108" fill="rgb(84, 84, 84)" font-size="10pt" font-family="lt_regular"  y="15">Confirmation&#160;</text><text text-decoration="none" x="185" fill="rgb(84, 84, 84)" font-size="10pt" font-family="lt_regular"  y="15">page&#160;</text><text text-decoration="none" x="215" fill="rgb(84, 84, 84)" font-size="10pt" font-family="lt_regular"  y="15">with&#160;</text><text text-decoration="none" x="243" fill="rgb(84, 84, 84)" font-size="10pt" font-family="lt_regular"  y="15">Order&#160;</text><text text-decoration="none" x="280" fill="rgb(84, 84, 84)" font-size="10pt" font-family="lt_regular"  y="15">Number,&#160;</text><text text-decoration="none" x="333" fill="rgb(84, 84, 84)" font-size="10pt" font-family="lt_regular"  y="15">Auto&#160;</text><text text-decoration="none" x="364" fill="rgb(84, 84, 84)" font-size="10pt" font-family="lt_regular"  y="15">renewal&#160;</text><text text-decoration="none" x="412" fill="rgb(84, 84, 84)" font-size="10pt" font-family="lt_regular"  y="15">Date&#160;</text><text text-decoration="none" x="443" fill="#4b4b4b" font-size="10pt" font-family="noto_regular"  y="15"></text></g></g><g id="Pjl4sEa5M2u"><g transform="translate(969.9999999999999 540)"><rect x="0" y="0" width="120.00000000000021" height="39" fill="rgba(255,255,255,0.01)" stroke="rgba(255,255,255,0.01)"/></g><g transform="translate(979.9999999999999, 550) rotate(0, 0, 0)" width="77" height="19"><text text-decoration="none" x="0" fill="rgb(75, 75, 75)" font-size="10pt" font-family="lt_regular"  y="15">Do&#160;</text><text text-decoration="none" x="20" fill="rgb(75, 75, 75)" font-size="10pt" font-family="lt_regular"  y="15">Purchase&#160;</text><text text-decoration="none" x="75" fill="#4b4b4b" font-size="10pt" font-family="noto_regular"  y="15"></text></g></g><g id="UjxJydEN2wj"><g><path d="M 800,409 Q 800,408.75066427122135 800,409 Q 800.0642036494704,408.75066427122135 800,409" fill="none" stroke="#7E7E7E" stroke-width="2" stroke-linecap="round" stroke-linejoin="round"/></g></g><g id="Y1MgD1HTfpk"><mask id="d48f4" x="762" y="366" width="52" height="108" maskUnits="userSpaceOnUse"><rect x="762" y="366" width="52" height="108" fill="white" />undefined</mask><g mask="url(#d48f4)"><path d="M 800,380 L 800,379.7880297514237 L 788,380 L 776,379.7880297514237 L 776,420 L 776,460 L 800,460" fill="none" stroke="#9A9A9A" stroke-width="2" stroke-linecap="round" stroke-linejoin="round"/><path d="M 800,460 L 791.304347826087,454.25 L 791.304347826087,465.75 Z" fill="rgb(154,154,154)" stroke="#9A9A9A" stroke-width="2" stroke-linecap="round" stroke-linejoin="round"/></g>undefined</g></svg>